<svg width="25" height="24" viewBox="0 0 25 24" fill="none" xmlns="http://www.w3.org/2000/svg">
<g clip-path="url(#clip0_27_67)">
<path d="M12.7665 2.99944C14.5473 2.99944 16.2882 3.52751 17.7689 4.51688C19.2496 5.50624 20.4037 6.91247 21.0852 8.55772C21.7667 10.203 21.9451 12.0134 21.5976 13.76C21.2502 15.5066 20.3926 17.1109 19.1334 18.3701C17.8742 19.6294 16.2698 20.4869 14.5232 20.8343C12.7766 21.1817 10.9661 21.0034 9.32081 20.3219C7.67556 19.6404 6.26956 18.4864 5.2802 17.0057C4.29083 15.525 3.7626 13.7842 3.7626 12.0034C3.76438 9.61593 4.71366 7.32679 6.40184 5.63861C8.09002 3.95043 10.3791 3.00123 12.7665 2.99944ZM12.7665 0C10.3932 0 8.07325 0.703792 6.09986 2.02237C4.12647 3.34095 2.5883 5.21509 1.68005 7.4078C0.771798 9.60052 0.534203 12.0133 0.997226 14.3411C1.46025 16.6689 2.60315 18.8071 4.28138 20.4853C5.95961 22.1635 8.09765 23.3064 10.4254 23.7694C12.7532 24.2324 15.1662 23.9948 17.3589 23.0866C19.5516 22.1783 21.4257 20.6402 22.7443 18.6668C24.0629 16.6935 24.7667 14.3734 24.7667 12C24.7661 8.81759 23.5014 5.76569 21.2511 3.51538C19.0008 1.26507 15.949 0.000596796 12.7665 0Z" fill="#FFFF00"/>
<path d="M15.7681 16.4996C15.571 16.5002 15.376 16.4614 15.1941 16.3855C15.0122 16.3095 14.8472 16.1979 14.7091 16.0573L11.7096 13.0624C11.4297 12.7805 11.2711 12.4005 11.2675 12.0033V6.00101C11.2675 5.60311 11.4255 5.22151 11.7069 4.94015C11.9882 4.6588 12.3696 4.50073 12.7675 4.50073C13.1654 4.50073 13.5471 4.6588 13.8284 4.94015C14.1098 5.22151 14.2678 5.60311 14.2678 6.00101V11.3797L16.8307 13.9391C17.0396 14.1494 17.1816 14.4167 17.239 14.7075C17.2963 14.9983 17.2664 15.2995 17.153 15.5733C17.0395 15.8472 16.8477 16.0813 16.6015 16.2463C16.3553 16.4113 16.0658 16.4999 15.7695 16.5007L15.7681 16.4996Z" fill="#FFFF00"/>
</g>
<defs>
<clipPath id="clip0_27_67">
<rect width="24" height="24" fill="white" transform="translate(0.766541)"/>
</clipPath>
</defs>
</svg>
