<svg width="44" height="44" viewBox="0 0 44 44" fill="none" xmlns="http://www.w3.org/2000/svg">
<path d="M23.837 25.8839V28.2388C23.837 28.7374 23.692 28.9866 23.4018 28.9866C23.2306 28.9866 23.0632 28.9048 22.8995 28.7411V25.3817C23.0632 25.218 23.2306 25.1362 23.4018 25.1362C23.692 25.1362 23.837 25.3854 23.837 25.8839ZM27.6094 25.8951V26.4085H26.6049V25.8951C26.6049 25.3891 26.7723 25.1362 27.1071 25.1362C27.442 25.1362 27.6094 25.3891 27.6094 25.8951ZM16.8281 23.4621H18.0223V22.4129H14.5402V23.4621H15.712V29.8125H16.8281V23.4621ZM20.0424 29.8125H21.0357V24.2991H20.0424V28.5179C19.8192 28.8304 19.6071 28.9866 19.4062 28.9866C19.2723 28.9866 19.1942 28.9085 19.1719 28.7522C19.1644 28.7299 19.1607 28.5997 19.1607 28.3616V24.2991H18.1674V28.6629C18.1674 29.0275 18.1972 29.2991 18.2567 29.4777C18.346 29.753 18.5617 29.8906 18.904 29.8906C19.2612 29.8906 19.6406 29.6637 20.0424 29.2098V29.8125ZM24.8303 28.1607V25.9621C24.8303 25.4189 24.7969 25.0506 24.7299 24.8571C24.6034 24.4405 24.3393 24.2321 23.9375 24.2321C23.5655 24.2321 23.2195 24.433 22.8995 24.8348V22.4129H21.9062V29.8125H22.8995V29.2768C23.2344 29.686 23.5803 29.8906 23.9375 29.8906C24.3393 29.8906 24.6034 29.686 24.7299 29.2768C24.7969 29.0759 24.8303 28.7039 24.8303 28.1607ZM28.6027 28.0491V27.904H27.587C27.587 28.2835 27.5796 28.5104 27.5647 28.5848C27.5126 28.8527 27.3638 28.9866 27.1183 28.9866C26.776 28.9866 26.6049 28.7299 26.6049 28.2165V27.2455H28.6027V26.096C28.6027 25.5082 28.5022 25.0766 28.3013 24.8013C28.0112 24.4219 27.6168 24.2321 27.1183 24.2321C26.6123 24.2321 26.2143 24.4219 25.9241 24.8013C25.7158 25.0766 25.6116 25.5082 25.6116 26.096V28.0268C25.6116 28.6146 25.7195 29.0461 25.9353 29.3214C26.2254 29.7009 26.6272 29.8906 27.1406 29.8906C27.6763 29.8906 28.0781 29.6935 28.346 29.2991C28.4799 29.0982 28.558 28.8973 28.5803 28.6964C28.5952 28.6295 28.6027 28.4137 28.6027 28.0491ZM21.817 17.8594V15.5156C21.817 15.0022 21.657 14.7455 21.337 14.7455C21.0171 14.7455 20.8571 15.0022 20.8571 15.5156V17.8594C20.8571 18.3802 21.0171 18.6406 21.337 18.6406C21.657 18.6406 21.817 18.3802 21.817 17.8594ZM29.8415 26.2411C29.8415 27.9821 29.7448 29.2842 29.5513 30.1473C29.4472 30.5863 29.2314 30.9546 28.904 31.2522C28.5766 31.5499 28.1972 31.721 27.7656 31.7656C26.3966 31.9219 24.3318 32 21.5714 32C18.811 32 16.7463 31.9219 15.3772 31.7656C14.9457 31.721 14.5644 31.5499 14.2333 31.2522C13.9021 30.9546 13.6882 30.5863 13.5915 30.1473C13.3981 29.314 13.3013 28.0119 13.3013 26.2411C13.3013 24.5 13.3981 23.1979 13.5915 22.3348C13.6957 21.8958 13.9114 21.5275 14.2388 21.2299C14.5662 20.9323 14.9494 20.7574 15.3884 20.7054C16.75 20.5565 18.811 20.4821 21.5714 20.4821C24.3318 20.4821 26.3966 20.5565 27.7656 20.7054C28.1972 20.7574 28.5785 20.9323 28.9096 21.2299C29.2407 21.5275 29.4546 21.8958 29.5513 22.3348C29.7448 23.1682 29.8415 24.4702 29.8415 26.2411ZM18.7031 12H19.8415L18.4911 16.4531V19.4777H17.375V16.4531C17.2708 15.9025 17.0439 15.1138 16.6942 14.0871C16.4189 13.3207 16.1771 12.625 15.9687 12H17.1518L17.9442 14.9353L18.7031 12ZM22.8326 15.7165V17.6696C22.8326 18.2723 22.7284 18.7113 22.5201 18.9866C22.2373 19.3661 21.843 19.5558 21.337 19.5558C20.8385 19.5558 20.4479 19.3661 20.1652 18.9866C19.9568 18.7039 19.8527 18.2649 19.8527 17.6696V15.7165C19.8527 15.1213 19.9568 14.686 20.1652 14.4107C20.4479 14.0312 20.8385 13.8415 21.337 13.8415C21.843 13.8415 22.2373 14.0312 22.5201 14.4107C22.7284 14.686 22.8326 15.1213 22.8326 15.7165ZM26.5714 13.9085V19.4777H25.5558V18.8638C25.1615 19.3251 24.7783 19.5558 24.4062 19.5558C24.064 19.5558 23.8445 19.4182 23.7478 19.1429C23.6882 18.9643 23.6585 18.6853 23.6585 18.3058V13.9085H24.6741V18.0045C24.6741 18.25 24.6778 18.3802 24.6853 18.3951C24.7076 18.5588 24.7857 18.6406 24.9196 18.6406C25.1205 18.6406 25.3326 18.4807 25.5558 18.1607V13.9085H26.5714Z" fill="#7F7F7F"/>
<rect x="0.5" y="0.5" width="43" height="43" rx="21.5" stroke="#7F7F7F"/>
</svg>
