<svg width="44" height="44" viewBox="0 0 44 44" fill="none" xmlns="http://www.w3.org/2000/svg">
<g clip-path="url(#clip0_27_283)">
<path d="M15.6519 12C13.6289 12 12 13.6289 12 15.6519V28.3481C12 30.3711 13.6289 32 15.6519 32H22.5331V24.1813H20.4656V21.3663H22.5331V18.9613C22.5331 17.0718 23.7547 15.3369 26.5688 15.3369C27.7081 15.3369 28.5506 15.4463 28.5506 15.4463L28.4844 18.075C28.4844 18.075 27.6251 18.0669 26.6875 18.0669C25.6727 18.0669 25.51 18.5345 25.51 19.3107V21.3663H28.565L28.4319 24.1813H25.51V32H28.3481C30.3711 32 32 30.3711 32 28.3482V15.6519C32 13.6289 30.3711 12 28.3481 12H15.6519L15.6519 12Z" fill="#7F7F7F"/>
</g>
<rect x="0.5" y="0.5" width="43" height="43" rx="21.5" stroke="#7F7F7F"/>
<defs>
<clipPath id="clip0_27_283">
<rect width="20" height="20" fill="white" transform="translate(12 12)"/>
</clipPath>
</defs>
</svg>
