<svg width="15" height="24" viewBox="0 0 15 24" fill="none" xmlns="http://www.w3.org/2000/svg">
<path d="M14.7665 7.38442C14.7677 6.25119 14.5081 5.13289 14.0077 4.11613C13.5073 3.09938 12.7796 2.21145 11.8809 1.52113C10.9822 0.83082 9.93659 0.356646 8.82518 0.135333C7.71378 -0.0859805 6.56638 -0.0484922 5.47179 0.244901C4.3772 0.538294 3.36483 1.07971 2.51311 1.82722C1.66139 2.57473 0.993159 3.50827 0.560193 4.55552C0.127228 5.60278 -0.0588672 6.73564 0.016338 7.86637C0.0915432 8.9971 0.426017 10.0953 0.993862 11.076H0.982596L7.37655 24.0012L13.7738 11.076H13.7637C14.4199 9.95641 14.7661 8.68218 14.7665 7.38442ZM7.38102 11.076C6.65093 11.0758 5.93735 10.8591 5.33041 10.4533C4.72348 10.0476 4.25046 9.47093 3.97122 8.79636C3.69199 8.12178 3.61907 7.37956 3.76164 6.66353C3.90421 5.9475 4.25588 5.28982 4.7722 4.77365C5.28853 4.25748 5.94633 3.906 6.6624 3.76365C7.37848 3.6213 8.12068 3.69448 8.79516 3.97392C9.46965 4.25336 10.0461 4.72652 10.4517 5.33358C10.8573 5.94064 11.0738 6.65433 11.0738 7.38442C11.0739 7.86929 10.9785 8.34944 10.7929 8.79741C10.6074 9.24537 10.3353 9.65236 9.99237 9.99511C9.64941 10.3379 9.24228 10.6097 8.7942 10.7949C8.34613 10.9802 7.86589 11.0753 7.38102 11.0749V11.076Z" fill="#FFFF00"/>
</svg>
