<svg width="50" height="48" viewBox="0 0 50 48" fill="none" xmlns="http://www.w3.org/2000/svg">
<path d="M40 5.655V0.5H10V5.655H0V13C0 19.3125 4.7225 24.495 10.81 25.33C11.6819 27.887 13.2285 30.1609 15.2862 31.9115C17.3439 33.662 19.8363 34.8241 22.5 35.275V38C22.5 39.3261 21.9732 40.5979 21.0355 41.5355C20.0979 42.4732 18.8261 43 17.5 43H15V48H35V43H32.5C31.1739 43 29.9021 42.4732 28.9645 41.5355C28.0268 40.5979 27.5 39.3261 27.5 38V35.275C30.1637 34.8241 32.6561 33.662 34.7138 31.9115C36.7715 30.1609 38.3181 27.887 39.19 25.33C45.2775 24.495 50 19.3125 50 13V5.655H40ZM5 13V10.655H10V20.07C8.53873 19.5518 7.27365 18.5941 6.37841 17.3282C5.48318 16.0623 5.00168 14.5504 5 13ZM45 13C44.9981 14.5507 44.5166 16.0628 43.6214 17.329C42.7262 18.5952 41.4613 19.5535 40 20.0725V10.655H45V13Z" fill="#F2EB21"/>
</svg>
